<?xml version="1.0" encoding="UTF-8" standalone="no"?>
<!-- Created with Inkscape (http://www.inkscape.org/) -->

<svg
   width="62.694267mm"
   height="69.268265mm"
   viewBox="0 0 62.694267 69.268265"
   version="1.1"
   id="svg5"
   xml:space="preserve"
   xmlns="http://www.w3.org/2000/svg"
   xmlns:svg="http://www.w3.org/2000/svg"><defs
     id="defs2"><clipPath
       id="clipPath4169"
       clipPathUnits="userSpaceOnUse"><path
         id="path4171"
         d="M 0,595 H 842 V 0 H 0 Z" /></clipPath></defs><g
     id="layer1"
     transform="translate(-73.652872,-121.48651)"><g
       id="g363"
       transform="matrix(0.26458333,0,0,0.26458333,77.262251,120.16359)"><g
         transform="matrix(2.6666666,0,0,-2.6666666,-3011.3482,1056.7811)"
         id="g10" /><g
         id="g4165"
         transform="matrix(0.875,0,0,-0.875,-3.4157375,367.9695)"><g
           id="g4167"
           clip-path="url(#clipPath4169)"><g
             id="g4173"
             transform="translate(154.3667,345.1753)"><path
               d="M 0,0 C 0,13.073 -10.942,23.659 -23.661,23.659 -36.725,23.659 -47.32,13.065 -47.32,0 c 0,-8.438 4.422,-15.846 11.073,-20.034 l -7.602,-12.253 c -0.883,0.204 -1.804,0.311 -2.749,0.311 -6.752,0 -12.228,-5.476 -12.228,-12.228 0,-6.753 5.476,-12.229 12.228,-12.229 6.753,0 12.229,5.476 12.229,12.229 0,4.175 -2.093,7.862 -5.288,10.068 l 7.481,12.057 c 2.641,-1.02 5.514,-1.581 8.515,-1.581 C -10.596,-23.66 0,-13.064 0,0 m 19.975,23.406 c 5.49,0 9.943,-4.453 9.943,-9.943 0,-5.49 -4.453,-9.942 -9.943,-9.942 -5.489,0 -9.941,4.452 -9.941,9.942 0,3.068 1.39,5.81 3.574,7.635 L 5.451,36.296 C 3.969,35.48 2.267,35.015 0.456,35.015 c -5.498,0 -10.368,4.832 -10.368,10.369 0,0.786 0.089,1.553 0.255,2.29 l -17.381,8.21 c -1.51,-1.681 -3.698,-2.737 -6.134,-2.737 -4.557,0 -8.251,3.694 -8.251,8.251 0,4.555 3.694,8.249 8.251,8.249 4.555,0 8.249,-3.694 8.249,-8.249 0,-0.496 -0.044,-0.983 -0.128,-1.456 l 17.33,-8.186 c 1.898,2.432 4.854,3.994 8.177,3.994 5.726,0 10.367,-4.642 10.367,-10.366 0,-2.233 -0.706,-4.301 -1.906,-5.993 l 8.727,-16.26 c 0.748,0.179 1.528,0.275 2.331,0.275"
               style="fill:#f57616;fill-opacity:1;fill-rule:evenodd;stroke:none"
               id="path4175" /></g><g
             id="g4177"
             transform="translate(187.2549,399.4932)"><path
               d="m 0,0 c 4.305,0 7.796,-3.491 7.796,-7.797 0,-1.654 -0.515,-3.188 -1.395,-4.45 l 6.06,-11.29 c 1.916,1.007 4.099,1.577 6.414,1.577 7.632,0 13.823,-6.19 13.823,-13.824 0,-7.633 -6.191,-13.823 -13.823,-13.823 -0.685,0 -1.357,0.05 -2.015,0.146 l -6.095,-13.345 c 2.483,-1.235 4.531,-3.214 5.852,-5.644 l 16.368,3.996 c 0.474,4.118 3.974,7.318 8.22,7.318 4.568,0 8.274,-3.705 8.274,-8.274 0,-3.611 -2.315,-6.683 -5.541,-7.812 l 0.131,-17.15 c 6.952,-1.337 12.204,-7.454 12.204,-14.796 0,-8.321 -6.747,-15.068 -15.068,-15.068 -8.322,0 -15.069,6.747 -15.069,15.068 0,7.762 5.871,14.153 13.413,14.979 l -0.127,16.697 c -2.531,0.556 -4.63,2.273 -5.708,4.565 l -15.639,-3.818 c 0.109,-0.69 0.165,-1.397 0.165,-2.117 0,-7.43 -6.025,-13.456 -13.455,-13.456 -7.431,0 -13.456,6.026 -13.456,13.456 0,7.43 6.025,13.456 13.456,13.456 0.545,0 1.081,-0.033 1.609,-0.096 l 6.135,13.435 c -4.442,2.299 -7.479,6.937 -7.479,12.283 0,3.671 1.432,7.007 3.767,9.482 L 2.792,-15.077 C 1.925,-15.41 0.984,-15.593 0,-15.593 c -4.306,0 -7.797,3.491 -7.797,7.796 C -7.797,-3.491 -4.306,0 0,0"
               style="fill:#4bb6d1;fill-opacity:1;fill-rule:evenodd;stroke:none"
               id="path4179" /></g><g
             id="g4181"
             transform="translate(135.6821,250.4619)"><path
               d="m 0,0 c 7.597,0 14.09,6.448 14.09,14.089 0,0.521 -0.029,1.035 -0.084,1.542 l 26.679,6.352 c 1.649,-4.717 6.139,-8.102 11.419,-8.102 2.793,0 5.365,0.948 7.413,2.54 L 70.14,5.102 c -1.763,-2.467 -2.8,-5.487 -2.8,-8.748 0,-8.322 6.747,-15.068 15.069,-15.068 8.321,0 15.069,6.746 15.069,15.068 0,8.321 -6.748,15.068 -15.069,15.068 -3.428,0 -6.587,-1.147 -9.119,-3.074 L 62.519,19.825 c 1.066,1.803 1.68,3.906 1.68,6.153 0,6.678 -5.416,12.094 -12.095,12.094 C 45.59,38.072 40.277,32.92 40.02,26.47 L 12.798,19.988 c -1.294,2.803 -3.482,5.109 -6.199,6.551 L 11.528,41.7 c 5.306,0.454 9.474,4.906 9.474,10.33 0,5.724 -4.643,10.367 -10.368,10.367 -5.725,0 -10.367,-4.643 -10.367,-10.367 0,-4.439 2.791,-8.227 6.714,-9.705 L 2.319,27.987 C 1.564,28.112 0.791,28.179 0,28.179 c -7.779,0 -14.089,-6.31 -14.089,-14.09 C -14.089,6.31 -7.779,0 0,0 m 40.216,-5.696 c 12.561,0 22.747,-10.186 22.747,-22.748 0,-12.561 -10.186,-22.748 -22.747,-22.748 -5.822,0 -11.134,2.189 -15.157,5.791 l -11.265,-7.84 c 1.098,-1.614 1.74,-3.565 1.74,-5.664 0,-5.578 -4.525,-10.102 -10.102,-10.102 -5.579,0 -10.103,4.524 -10.103,10.102 0,5.578 4.524,10.101 10.103,10.101 1.802,0 3.493,-0.472 4.958,-1.3 l 11.589,8.065 c -2.832,3.793 -4.51,8.5 -4.51,13.595 0,12.202 10.467,22.748 22.747,22.748 m -67.084,-42.612 c 2.491,-1.458 4.163,-4.159 4.163,-7.252 0,-4.636 -3.761,-8.397 -8.398,-8.397 -4.637,0 -8.397,3.761 -8.397,8.397 0,4.584 3.674,8.31 8.237,8.397 l 3.487,22.222 c -3.311,1.761 -5.566,5.246 -5.566,9.256 0,5.789 4.694,10.483 10.48,10.483 5.787,0 10.481,-4.694 10.481,-10.483 0,-5.539 -4.976,-10.48 -10.481,-10.48 -0.178,0 -0.354,0.005 -0.53,0.015 z"
               style="fill:#a2d61d;fill-opacity:1;fill-rule:evenodd;stroke:none"
               id="path4183" /></g><g
             id="g4185"
             transform="translate(84.7915,364.125)"><path
               d="m 0,0 c 0,11.225 -9.68,21.076 -21.077,21.076 -11.637,0 -21.076,-9.439 -21.076,-21.076 0,-0.771 0.043,-1.533 0.125,-2.283 l -9.708,-3.141 c -1.635,2.347 -4.354,3.882 -7.431,3.882 -4.998,0 -9.05,-4.052 -9.05,-9.051 0,-4.998 4.052,-9.052 9.05,-9.052 4.999,0 9.052,4.054 9.052,9.052 0,0.307 -0.014,0.611 -0.046,0.91 l 9.108,2.948 c 2.812,-8.335 10.696,-14.341 19.976,-14.341 0.333,0 0.662,0.008 0.99,0.024 v -13.515 c -4.418,-1.025 -7.71,-4.986 -7.71,-9.712 0,-5.505 4.464,-9.97 9.968,-9.97 5.505,0 9.97,4.465 9.97,9.97 0,4.726 -3.293,8.687 -7.709,9.712 v 14.219 C -6.602,-17.925 0,-9.732 0,0 m -5.617,45.246 c 4.998,0 9.052,-4.054 9.052,-9.051 0,-1.098 -0.194,-2.149 -0.553,-3.123 l 8.613,-7.896 c 1.855,1.52 4.228,2.432 6.814,2.432 5.943,0 10.764,-4.82 10.764,-10.764 0,-5.943 -4.821,-10.764 -10.764,-10.764 -5.79,0 -10.765,5.036 -10.765,10.764 0,1.715 0.401,3.336 1.115,4.775 l -8.393,7.697 c -1.583,-1.355 -3.638,-2.173 -5.883,-2.173 -4.998,0 -9.052,4.053 -9.052,9.052 0,4.997 4.054,9.051 9.052,9.051"
               style="fill:#fac60b;fill-opacity:1;fill-rule:evenodd;stroke:none"
               id="path4187" /></g><g
             id="g4189"
             transform="translate(48.1602,228.2314)"><path
               d="m 0,0 -12.448,13.554 c -0.96,-0.466 -2.036,-0.728 -3.175,-0.728 -4.019,0 -7.278,3.26 -7.278,7.278 0,4.019 3.259,7.278 7.278,7.278 4.019,0 7.278,-3.259 7.278,-7.278 0,-1.233 -0.307,-2.395 -0.849,-3.413 L 3,3.414 c 3.532,3.198 8.215,5.147 13.353,5.147 0.457,0 0.91,-0.017 1.359,-0.047 l 4.691,16.217 C 13.877,27.433 7.695,35.409 7.695,44.827 c 0,1.079 0.082,2.138 0.238,3.174 l -26.459,1.546 c -1.59,-2.604 -4.457,-4.342 -7.731,-4.342 -4.998,0 -9.051,4.054 -9.051,9.052 0,4.873 3.851,8.847 8.676,9.044 l 3.319,17.723 c -5.674,1.515 -9.855,6.691 -9.855,12.843 0,7.34 5.952,13.292 13.292,13.292 7.339,0 13.291,-5.952 13.291,-13.292 0,-6.969 -5.366,-12.685 -12.191,-13.246 l -3.422,-18.272 c 2.961,-1.489 4.993,-4.553 4.993,-8.092 l -0.004,-0.244 26.336,-1.538 c 3.062,7.858 10.705,13.428 19.645,13.428 11.637,0 21.076,-9.438 21.076,-21.076 0,-11.638 -9.439,-21.076 -21.076,-21.076 -0.648,0 -1.289,0.031 -1.922,0.088 L 22.179,7.692 C 30.326,5.2 36.253,-2.379 36.253,-11.34 c 0,-10.988 -8.912,-19.9 -19.9,-19.9 -10.989,0 -19.901,8.912 -19.901,19.9 0,4.215 1.312,8.122 3.548,11.34"
               style="fill:#4bb6d1;fill-opacity:1;fill-rule:evenodd;stroke:none"
               id="path4191" /></g><g
             id="g4193"
             transform="translate(91.2964,344.9927)"><path
               d="m 0,0 c 5.945,0 10.767,-4.821 10.767,-10.766 0,-5.945 -4.822,-10.767 -10.767,-10.767 -5.945,0 -10.766,4.822 -10.766,10.767 C -10.766,-4.821 -5.945,0 0,0"
               style="fill:#fbde4c;fill-opacity:1;fill-rule:evenodd;stroke:none"
               id="path4195" /></g><g
             id="g4197"
             transform="translate(164.4019,329.1753)"><path
               d="m 0,0 c 5.138,0 9.304,-4.167 9.304,-9.304 0,-5.137 -4.166,-9.304 -9.304,-9.304 -5.138,0 -9.304,4.167 -9.304,9.304 C -9.304,-4.167 -5.138,0 0,0"
               style="fill:#90cdd4;fill-opacity:1;fill-rule:evenodd;stroke:none"
               id="path4199" /></g><g
             id="g4201"
             transform="translate(201.0874,308.1743)"><path
               d="m 0,0 c 5.138,0 9.305,-4.167 9.305,-9.304 0,-5.138 -4.167,-9.305 -9.305,-9.305 -5.137,0 -9.304,4.167 -9.304,9.305 C -9.304,-4.167 -5.137,0 0,0"
               style="fill:#90cdd4;fill-opacity:1;fill-rule:evenodd;stroke:none"
               id="path4203" /></g><g
             id="g4205"
             transform="translate(211.0566,347.2944)"><path
               d="m 0,0 c 3.176,0 5.752,-2.576 5.752,-5.752 0,-3.177 -2.576,-5.752 -5.752,-5.752 -3.177,0 -5.752,2.575 -5.752,5.752 C -5.752,-2.576 -3.177,0 0,0"
               style="fill:#90cdd4;fill-opacity:1;fill-rule:evenodd;stroke:none"
               id="path4207" /></g><g
             id="g4209"
             transform="translate(166.5288,263.8477)"><path
               d="m 0,0 c 4.588,0 8.309,-3.722 8.309,-8.309 0,-4.588 -3.721,-8.309 -8.309,-8.309 -4.588,0 -8.309,3.721 -8.309,8.309 C -8.309,-3.722 -4.588,0 0,0"
               style="fill:#bbe042;fill-opacity:1;fill-rule:evenodd;stroke:none"
               id="path4211" /></g><g
             id="g4213"
             transform="translate(88.6382,247.167)"><path
               d="m 0,0 c 3.892,0 7.047,-3.155 7.047,-7.047 0,-3.891 -3.155,-7.047 -7.047,-7.047 -3.892,0 -7.047,3.156 -7.047,7.047 C -7.047,-3.155 -3.892,0 0,0"
               style="fill:#90cdd4;fill-opacity:1;fill-rule:evenodd;stroke:none"
               id="path4215" /></g><g
             id="g4217"
             transform="translate(51.1553,259.1289)"><path
               d="m 0,0 c 3.891,0 7.047,-3.155 7.047,-7.047 0,-3.891 -3.156,-7.047 -7.047,-7.047 -3.892,0 -7.047,3.156 -7.047,7.047 C -7.047,-3.155 -3.892,0 0,0"
               style="fill:#90cdd4;fill-opacity:1;fill-rule:evenodd;stroke:none"
               id="path4219" /></g><g
             id="g4221"
             transform="translate(45.8384,307.9087)"><path
               d="m 0,0 c 5.285,0 9.57,-4.285 9.57,-9.57 0,-5.285 -4.285,-9.57 -9.57,-9.57 -5.285,0 -9.571,4.285 -9.571,9.57 C -9.571,-4.285 -5.285,0 0,0"
               style="fill:#90cdd4;fill-opacity:1;fill-rule:evenodd;stroke:none"
               id="path4223" /></g><g
             id="g4225"
             transform="translate(84.2344,312.8247)"><path
               d="m 0,0 c 3.596,0 6.512,-2.915 6.512,-6.511 0,-3.596 -2.916,-6.512 -6.512,-6.512 -3.596,0 -6.511,2.916 -6.511,6.512 C -6.511,-2.915 -3.596,0 0,0"
               style="fill:#fbde4c;fill-opacity:1;fill-rule:evenodd;stroke:none"
               id="path4227" /></g><g
             id="g4229"
             transform="translate(130.3745,391.0088)"><path
               d="m 0,0 c 3.905,0 7.071,-3.167 7.071,-7.071 0,-3.904 -3.166,-7.07 -7.071,-7.07 -3.904,0 -7.071,3.166 -7.071,7.07 C -7.071,-3.167 -3.904,0 0,0"
               style="fill:#f89f49;fill-opacity:1;fill-rule:evenodd;stroke:none"
               id="path4231" /></g><g
             id="g4233"
             transform="translate(110.1172,278.8789)"><path
               d="m 0,0 c 4.522,0 8.188,-3.666 8.188,-8.188 0,-4.521 -3.666,-8.187 -8.188,-8.187 -4.521,0 -8.187,3.666 -8.187,8.187 C -8.187,-3.666 -4.521,0 0,0"
               style="fill:#90cdd4;fill-opacity:1;fill-rule:evenodd;stroke:none"
               id="path4235" /></g><g
             id="g4237"
             transform="translate(127.9824,313.728)"><path
               d="m 0,0 c 2.626,0 4.756,-2.129 4.756,-4.756 0,-2.627 -2.13,-4.756 -4.756,-4.756 -2.627,0 -4.756,2.129 -4.756,4.756 C -4.756,-2.129 -2.627,0 0,0"
               style="fill:#f89f49;fill-opacity:1;fill-rule:evenodd;stroke:none"
               id="path4239" /></g><g
             id="g4241"
             transform="translate(130.3745,219.6074)"><path
               d="m 0,0 c 3.646,0 6.604,-2.956 6.604,-6.604 0,-3.646 -2.958,-6.602 -6.604,-6.602 -3.646,0 -6.603,2.956 -6.603,6.602 C -6.603,-2.956 -3.646,0 0,0"
               style="fill:#bbe042;fill-opacity:1;fill-rule:evenodd;stroke:none"
               id="path4243" /></g><g
             id="g4245"
             transform="translate(166.7944,297.1187)"><path
               d="m 0,0 c 3.29,0 5.958,-2.668 5.958,-5.958 0,-3.29 -2.668,-5.958 -5.958,-5.958 -3.29,0 -5.958,2.668 -5.958,5.958 C -5.958,-2.668 -3.29,0 0,0"
               style="fill:#bbe042;fill-opacity:1;fill-rule:evenodd;stroke:none"
               id="path4247" /></g><g
             id="g4249"
             transform="translate(156.6929,373.4136)"><path
               d="m 0,0 c 3.29,0 5.958,-2.668 5.958,-5.958 0,-3.289 -2.668,-5.957 -5.958,-5.957 -3.29,0 -5.958,2.668 -5.958,5.957 C -5.958,-2.668 -3.29,0 0,0"
               style="fill:#f89f49;fill-opacity:1;fill-rule:evenodd;stroke:none"
               id="path4251" /></g><g
             id="g4253"
             transform="translate(101.1323,364.8711)"><path
               d="m 0,0 c 2.683,0 4.859,-2.175 4.859,-4.858 0,-2.684 -2.176,-4.859 -4.859,-4.859 -2.683,0 -4.859,2.175 -4.859,4.859 C -4.859,-2.175 -2.683,0 0,0"
               style="fill:#fbde4c;fill-opacity:1;fill-rule:evenodd;stroke:none"
               id="path4255" /></g><g
             id="g4257"
             transform="translate(58.3325,395.3486)"><path
               d="m 0,0 c 1.897,0 3.436,-1.538 3.436,-3.436 0,-1.897 -1.539,-3.435 -3.436,-3.435 -1.897,0 -3.436,1.538 -3.436,3.435 C -3.436,-1.538 -1.897,0 0,0"
               style="fill:#fbde4c;fill-opacity:1;fill-rule:evenodd;stroke:none"
               id="path4259" /></g><g
             id="g4261"
             transform="translate(175.623,382.4175)"><path
               d="m 0,0 c 2.326,0 4.212,-1.886 4.212,-4.212 0,-2.326 -1.886,-4.212 -4.212,-4.212 -2.326,0 -4.212,1.886 -4.212,4.212 C -4.212,-1.886 -2.326,0 0,0"
               style="fill:#f89f49;fill-opacity:1;fill-rule:evenodd;stroke:none"
               id="path4263" /></g><g
             id="g4265"
             transform="translate(192.5806,257.2422)"><path
               d="m 0,0 c 2.262,0 4.096,-1.834 4.096,-4.096 0,-2.261 -1.834,-4.096 -4.096,-4.096 -2.261,0 -4.096,1.835 -4.096,4.096 C -4.096,-1.834 -2.261,0 0,0"
               style="fill:#bbe042;fill-opacity:1;fill-rule:evenodd;stroke:none"
               id="path4267" /></g><g
             id="g4269"
             transform="translate(211.2178,273.752)"><path
               d="m 0,0 c 2.262,0 4.096,-1.834 4.096,-4.096 0,-2.261 -1.834,-4.095 -4.096,-4.095 -2.262,0 -4.096,1.834 -4.096,4.095 C -4.096,-1.834 -2.262,0 0,0"
               style="fill:#bbe042;fill-opacity:1;fill-rule:evenodd;stroke:none"
               id="path4271" /></g><g
             id="g4273"
             transform="translate(45.6475,346.189)"><path
               d="m 0,0 c 3.523,0 6.38,-2.857 6.38,-6.38 0,-3.523 -2.857,-6.38 -6.38,-6.38 -3.523,0 -6.38,2.857 -6.38,6.38 C -6.38,-2.857 -3.523,0 0,0"
               style="fill:#fbde4c;fill-opacity:1;fill-rule:evenodd;stroke:none"
               id="path4275" /></g><g
             id="g4277"
             transform="translate(8.8867,307.8408)"><path
               d="m 0,0 c 2.752,0 4.983,-2.231 4.983,-4.983 0,-2.752 -2.231,-4.983 -4.983,-4.983 -2.752,0 -4.983,2.231 -4.983,4.983 C -4.983,-2.231 -2.752,0 0,0"
               style="fill:#90cdd4;fill-opacity:1;fill-rule:evenodd;stroke:none"
               id="path4279" /></g></g></g></g><path
       style="fill:#474747;fill-opacity:1;stroke-width:0.1905"
       d="m 86.245632,185.89702 v -4.85775 h 0.857254 c 0.796492,0 0.857246,0.0351 0.857246,0.49599 v 0.49598 l 0.67338,-0.59124 c 0.404633,-0.35528 0.802426,-0.62178 1.876421,-0.62178 1.02407,0 1.316037,0.11245 1.962662,0.58082 2.232447,1.61718 2.046701,5.56131 -0.321465,6.82588 -1.153124,0.61576 -2.537223,0.53335 -3.510504,-0.209 l -0.680494,-0.51904 v 1.62895 1.62894 h -0.857246 -0.857254 z m 4.658551,1.15892 c 2.190809,-0.91538 1.629807,-4.87367 -0.690732,-4.87367 -1.344967,0 -2.253319,0.98304 -2.253319,2.43861 0,1.196 0.349035,1.90739 1.116137,2.32157 0.60016,0.32404 1.007316,0.45635 1.827914,0.11349 z M 76.9212,188.27237 c -3.59311,-1.29211 -4.431881,-6.22974 -1.468382,-8.64407 1.13284,-0.92292 2.07108,-1.25632 3.529454,-1.25417 2.977517,0.004 5.161392,2.15555 5.166,5.08858 0.0058,3.73986 -3.575016,6.12296 -7.227072,4.80966 z m 3.75611,-1.62609 c 1.073528,-0.65135 1.463249,-1.37797 1.538518,-2.86852 0.0843,-1.66938 -0.33768,-2.58773 -1.550383,-3.37406 -1.572293,-1.01949 -3.871901,-0.42949 -4.707137,1.2077 -0.453701,0.88933 -0.505685,2.51308 -0.110527,3.45273 0.336629,0.80049 1.214409,1.65269 1.940472,1.88394 0.751478,0.23934 2.256249,0.0821 2.889057,-0.30179 z m 16.882006,1.53803 c -1.160546,-0.57832 -1.743113,-1.3254 -1.968214,-2.52401 -0.156441,-0.83304 -0.175299,-1.3229 0.09859,-2.47441 0.203517,-0.85565 1.13076,-1.70765 1.814256,-2.0611 0.822878,-0.42553 2.754622,-0.35905 3.532252,0.12156 0.88259,0.54547 1.59428,1.83012 1.72717,3.11769 l 0.10906,1.05673 h -2.86632 c -2.728494,0 -2.98394,-0.19637 -2.77106,0.36421 0.217819,0.57358 0.771681,1.12954 1.576586,1.3707 0.68246,0.20447 1.241504,-0.0152 1.757544,-0.27061 l 1.00337,-0.49656 0.4325,0.40632 c 0.41408,0.38901 0.41831,0.42229 0.0994,0.78128 -0.98164,1.10504 -3.004834,1.37577 -4.545154,0.6082 z m 3.545314,-4.1065 c 0,-0.90884 -0.60732,-1.40194 -0.93415,-1.65136 -0.436234,-0.3329 -1.572974,-0.29678 -2.091583,0.0665 -0.367963,0.25773 -0.944212,0.81688 -0.974765,1.68349 -0.002,0.0557 0.900115,0.10136 2.000254,0.10136 1.269584,0 2.000244,-0.073 2.000244,-0.19996 z m 3.6195,0.67621 v -3.71475 h 0.85725 c 0.73025,0 0.85725,0.0565 0.85725,0.381 0,0.20955 -0.006,0.41155 0.0988,0.41155 0.10477,0 0.17529,-0.0637 0.28216,-0.21616 0.31314,-0.44662 1.14283,-0.76689 2.18302,-0.76689 0.89747,0 1.14118,0.0799 1.59824,0.52387 0.81437,0.7911 0.98124,1.54915 0.98124,4.45755 v 2.63858 h -0.9525 -0.9525 v -2.63108 c 0,-2.37973 -0.0369,-2.67068 -0.38628,-3.0457 -0.21245,-0.22803 -0.58897,-0.46548 -0.83672,-0.52767 -0.60325,-0.1514 -1.60549,0.38834 -1.83319,0.98723 -0.10027,0.26373 -0.18231,1.5455 -0.18231,2.84837 v 2.36885 h -0.85725 -0.85725 z m 9.144,-1.3335 v -5.04825 l 0.90488,1.9e-4 0.90487,1.9e-4 1.4907,2.381 c 0.81989,1.30955 1.54855,2.37715 1.61925,2.37243 0.0707,-0.005 0.79966,-1.07627 1.61989,-2.38125 l 1.49134,-2.37256 h 0.93753 0.93754 v 5.04825 5.04825 h -0.85305 -0.85304 l -0.0518,-3.57188 -0.0518,-3.57187 -1.50135,2.24257 c -0.82574,1.23341 -1.5716,2.28598 -1.65746,2.33905 -0.0859,0.0531 -0.82471,-0.91324 -1.6419,-2.14733 l -1.48579,-2.24379 -0.0519,3.47662 -0.0519,3.47663 h -0.85295 -0.85295 z m 12.573,0 v -5.04825 l 0.90488,0.004 0.90487,0.004 1.50092,2.39127 c 1.08249,1.72463 1.55877,2.33343 1.7084,2.18379 0.11411,-0.11411 0.81976,-1.17033 1.56811,-2.34717 l 1.36063,-2.1397 0.9791,-0.0576 0.97909,-0.0576 v 5.05821 5.0582 h -0.85725 -0.85725 v -3.53549 c 0,-2.11323 -0.0708,-3.49175 -0.17593,-3.42677 -0.0968,0.0598 -0.82353,1.09356 -1.61505,2.29725 -0.79152,1.20368 -1.48032,2.18851 -1.53066,2.18851 -0.0503,0 -0.75947,-1.00726 -1.57582,-2.23837 l -1.48429,-2.23836 -0.0519,3.47662 -0.0519,3.47663 h -0.85296 -0.85295 z"
       id="path1318" /></g></svg>
